<svg width="56" height="56" viewBox="0 0 56 56" fill="none" xmlns="http://www.w3.org/2000/svg">
<circle cx="28" cy="28" r="27" fill="white" stroke="#C8C8C8" stroke-width="2"/>
<path d="M28.5492 43.9215L26.4263 42.0182C23.9619 39.7978 21.9244 37.8823 20.3139 36.2718C18.7035 34.6614 17.4224 33.2156 16.4708 31.9346C15.5191 30.6535 14.8542 29.4762 14.476 28.4026C14.0978 27.3289 13.9087 26.2309 13.9087 25.1084C13.9087 22.8148 14.6773 20.8993 16.2146 19.362C17.7518 17.8248 19.6673 17.0562 21.961 17.0562C23.2298 17.0562 24.4377 17.3246 25.5845 17.8614C26.7313 18.3982 27.7196 19.1546 28.5492 20.1307C29.3788 19.1546 30.3671 18.3982 31.5139 17.8614C32.6608 17.3246 33.8686 17.0562 35.1375 17.0562C37.4311 17.0562 39.3466 17.8248 40.8839 19.362C42.4211 20.8993 43.1897 22.8148 43.1897 25.1084C43.1897 26.2309 43.0006 27.3289 42.6224 28.4026C42.2442 29.4762 41.5793 30.6535 40.6276 31.9346C39.676 33.2156 38.395 34.6614 36.7845 36.2718C35.1741 37.8823 33.1366 39.7978 30.6721 42.0182L28.5492 43.9215ZM28.5492 39.9686C30.8917 37.8701 32.8194 36.0705 34.3322 34.5699C35.8451 33.0692 37.0407 31.7638 37.9191 30.6535C38.7976 29.5433 39.4076 28.5551 39.7492 27.6888C40.0908 26.8226 40.2616 25.9625 40.2616 25.1084C40.2616 23.6444 39.7736 22.4243 38.7976 21.4483C37.8215 20.4723 36.6015 19.9843 35.1375 19.9843C33.9906 19.9843 32.9292 20.3076 31.9531 20.9542C30.9771 21.6008 30.3061 22.4243 29.9401 23.4248H27.1584C26.7924 22.4243 26.1213 21.6008 25.1453 20.9542C24.1693 20.3076 23.1078 19.9843 21.961 19.9843C20.4969 19.9843 19.2769 20.4723 18.3008 21.4483C17.3248 22.4243 16.8368 23.6444 16.8368 25.1084C16.8368 25.9625 17.0076 26.8226 17.3492 27.6888C17.6908 28.5551 18.3008 29.5433 19.1793 30.6535C20.0577 31.7638 21.2534 33.0692 22.7662 34.5699C24.2791 36.0705 26.2067 37.8701 28.5492 39.9686Z" fill="#8F5194"/>
</svg>
