<svg width="20" height="20" viewBox="0 0 20 20" fill="none" xmlns="http://www.w3.org/2000/svg">
<path d="M12.0833 14.9998C11.5 14.9998 11.0069 14.7984 10.6042 14.3957C10.2014 13.9929 10 13.4998 10 12.9165C10 12.3332 10.2014 11.8401 10.6042 11.4373C11.0069 11.0346 11.5 10.8332 12.0833 10.8332C12.6667 10.8332 13.1597 11.0346 13.5625 11.4373C13.9653 11.8401 14.1667 12.3332 14.1667 12.9165C14.1667 13.4998 13.9653 13.9929 13.5625 14.3957C13.1597 14.7984 12.6667 14.9998 12.0833 14.9998ZM4.16667 18.3332C3.70833 18.3332 3.31597 18.17 2.98958 17.8436C2.66319 17.5172 2.5 17.1248 2.5 16.6665V4.99984C2.5 4.5415 2.66319 4.14914 2.98958 3.82275C3.31597 3.49636 3.70833 3.33317 4.16667 3.33317H5V1.6665H6.66667V3.33317H13.3333V1.6665H15V3.33317H15.8333C16.2917 3.33317 16.684 3.49636 17.0104 3.82275C17.3368 4.14914 17.5 4.5415 17.5 4.99984V16.6665C17.5 17.1248 17.3368 17.5172 17.0104 17.8436C16.684 18.17 16.2917 18.3332 15.8333 18.3332H4.16667ZM4.16667 16.6665H15.8333V8.33317H4.16667V16.6665ZM4.16667 6.6665H15.8333V4.99984H4.16667V6.6665Z" fill="#8E949C"/>
</svg>
