<svg width="40" height="40" viewBox="0 0 40 40" fill="none" xmlns="http://www.w3.org/2000/svg">
<circle cx="20" cy="20" r="20" fill="#5F6368"/>
<path d="M14 30C13.45 30 12.9792 29.8042 12.5875 29.4125C12.1958 29.0208 12 28.55 12 28V18C12 17.45 12.1958 16.9792 12.5875 16.5875C12.9792 16.1958 13.45 16 14 16H15V14C15 12.6167 15.4875 11.4375 16.4625 10.4625C17.4375 9.4875 18.6167 9 20 9C21.3833 9 22.5625 9.4875 23.5375 10.4625C24.5125 11.4375 25 12.6167 25 14V16H26C26.55 16 27.0208 16.1958 27.4125 16.5875C27.8042 16.9792 28 17.45 28 18V28C28 28.55 27.8042 29.0208 27.4125 29.4125C27.0208 29.8042 26.55 30 26 30H14ZM14 28H26V18H14V28ZM20 25C20.55 25 21.0208 24.8042 21.4125 24.4125C21.8042 24.0208 22 23.55 22 23C22 22.45 21.8042 21.9792 21.4125 21.5875C21.0208 21.1958 20.55 21 20 21C19.45 21 18.9792 21.1958 18.5875 21.5875C18.1958 21.9792 18 22.45 18 23C18 23.55 18.1958 24.0208 18.5875 24.4125C18.9792 24.8042 19.45 25 20 25ZM17 16H23V14C23 13.1667 22.7083 12.4583 22.125 11.875C21.5417 11.2917 20.8333 11 20 11C19.1667 11 18.4583 11.2917 17.875 11.875C17.2917 12.4583 17 13.1667 17 14V16Z" fill="white"/>
</svg>
