<svg width="20" height="20" viewBox="0 0 20 20" fill="none" xmlns="http://www.w3.org/2000/svg">
<path d="M3.33317 16.6668C2.87484 16.6668 2.48248 16.5036 2.15609 16.1772C1.8297 15.8509 1.6665 15.4585 1.6665 15.0002V5.00016C1.6665 4.54183 1.8297 4.14947 2.15609 3.82308C2.48248 3.49669 2.87484 3.3335 3.33317 3.3335H16.6665C17.1248 3.3335 17.5172 3.49669 17.8436 3.82308C18.17 4.14947 18.3332 4.54183 18.3332 5.00016V15.0002C18.3332 15.4585 18.17 15.8509 17.8436 16.1772C17.5172 16.5036 17.1248 16.6668 16.6665 16.6668H3.33317ZM3.33317 15.0002H9.1665V5.00016H3.33317V15.0002ZM10.8332 15.0002H16.6665V5.00016H10.8332V15.0002ZM4.1665 13.3335H8.33317V11.6668H4.1665V13.3335ZM4.1665 10.8335H8.33317V9.16683H4.1665V10.8335ZM4.1665 8.3335H8.33317V6.66683H4.1665V8.3335ZM11.6665 13.3335H15.8332V11.6668H11.6665V13.3335ZM11.6665 10.8335H15.8332V9.16683H11.6665V10.8335ZM11.6665 8.3335H15.8332V6.66683H11.6665V8.3335Z" fill="#8E949C"/>
</svg>
