<svg width="20" height="20" viewBox="0 0 20 20" fill="none" xmlns="http://www.w3.org/2000/svg">
<path d="M15.6761 17.8786C15.0164 17.8786 14.4556 17.647 13.9938 17.1838C13.532 16.7207 13.3011 16.1584 13.3011 15.4967C13.3011 15.4041 13.3115 15.2908 13.3324 15.1569C13.3532 15.0229 13.3844 14.9023 13.4261 14.7952L7.11361 11.1286C6.90527 11.3647 6.64833 11.5557 6.34277 11.7015C6.03722 11.8473 5.72472 11.9202 5.40527 11.9202C4.74555 11.9202 4.18479 11.6893 3.72298 11.2275C3.26118 10.7657 3.03027 10.205 3.03027 9.54525C3.03027 8.88552 3.26118 8.32476 3.72298 7.86296C4.18479 7.40115 4.74555 7.17025 5.40527 7.17025C5.72472 7.17025 6.03027 7.23275 6.32194 7.35775C6.61361 7.48275 6.8775 7.6633 7.11361 7.89941L13.4261 4.27441C13.3844 4.17622 13.3532 4.06573 13.3324 3.94296C13.3115 3.82018 13.3011 3.7015 13.3011 3.58691C13.3011 2.92719 13.532 2.36643 13.9938 1.90462C14.4556 1.44282 15.0164 1.21191 15.6761 1.21191C16.3358 1.21191 16.8966 1.44282 17.3584 1.90462C17.8202 2.36643 18.0511 2.92719 18.0511 3.58691C18.0511 4.24664 17.8202 4.8074 17.3584 5.26921C16.8966 5.73101 16.3358 5.96191 15.6761 5.96191C15.3518 5.96191 15.0415 5.90983 14.7453 5.80566C14.4492 5.7015 14.1969 5.53136 13.9886 5.29525L7.67611 8.79525C7.70388 8.90636 7.72819 9.03483 7.74902 9.18066C7.76986 9.3265 7.78027 9.44969 7.78027 9.55025C7.78027 9.6508 7.76986 9.75497 7.74902 9.86275C7.72819 9.97052 7.70388 10.08 7.67611 10.1911L13.9886 13.7744C14.1969 13.58 14.44 13.4237 14.7178 13.3057C14.9956 13.1876 15.315 13.1286 15.6761 13.1286C16.3358 13.1286 16.8966 13.3595 17.3584 13.8213C17.8202 14.2831 18.0511 14.8439 18.0511 15.5036C18.0511 16.1633 17.8202 16.7241 17.3584 17.1859C16.8966 17.6477 16.3358 17.8786 15.6761 17.8786Z" fill="#8E949C"/>
</svg>
