<svg width="56" height="56" viewBox="0 0 56 56" fill="none" xmlns="http://www.w3.org/2000/svg">
<circle cx="28" cy="28" r="27" fill="white" stroke="#C8C8C8" stroke-width="2"/>
<path d="M35.2268 42.3909C34.0677 42.3909 33.0825 41.984 32.2712 41.1703C31.4599 40.3567 31.0542 39.3687 31.0542 38.2063C31.0542 38.0435 31.0725 37.8445 31.1091 37.6093C31.1457 37.3738 31.2006 37.162 31.2738 36.9739L20.1836 30.5321C19.8176 30.9469 19.3662 31.2824 18.8294 31.5386C18.2926 31.7948 17.7435 31.9229 17.1823 31.9229C16.0233 31.9229 15.0381 31.5173 14.2268 30.7059C13.4154 29.8946 13.0098 28.9094 13.0098 27.7504C13.0098 26.5913 13.4154 25.6062 14.2268 24.7948C15.0381 23.9835 16.0233 23.5778 17.1823 23.5778C17.7435 23.5778 18.2804 23.6876 18.7928 23.9072C19.3052 24.1269 19.7688 24.4441 20.1836 24.8589L31.2738 18.4903C31.2006 18.3177 31.1457 18.1236 31.1091 17.9079C31.0725 17.6922 31.0542 17.4837 31.0542 17.2824C31.0542 16.1234 31.4599 15.1382 32.2712 14.3269C33.0825 13.5155 34.0677 13.1099 35.2268 13.1099C36.3858 13.1099 37.371 13.5155 38.1823 14.3269C38.9936 15.1382 39.3993 16.1234 39.3993 17.2824C39.3993 18.4415 38.9936 19.4266 38.1823 20.238C37.371 21.0493 36.3858 21.455 35.2268 21.455C34.657 21.455 34.1119 21.3635 33.5914 21.1805C33.0712 20.9974 32.6281 20.6985 32.2621 20.2837L21.1719 26.4327C21.2207 26.6279 21.2634 26.8537 21.3 27.1099C21.3366 27.3661 21.3549 27.5825 21.3549 27.7592C21.3549 27.9358 21.3366 28.1188 21.3 28.3082C21.2634 28.4975 21.2207 28.6898 21.1719 28.885L32.2621 35.1805C32.6281 34.8388 33.0551 34.5643 33.5431 34.3569C34.0311 34.1495 34.5923 34.0458 35.2268 34.0458C36.3858 34.0458 37.371 34.4515 38.1823 35.2628C38.9936 36.0741 39.3993 37.0593 39.3993 38.2184C39.3993 39.3774 38.9936 40.3626 38.1823 41.1739C37.371 41.9852 36.3858 42.3909 35.2268 42.3909Z" fill="#5F6368"/>
</svg>
