<?xml version="1.0" encoding="UTF-8"?>
<svg id="Layer_1" data-name="Layer 1" xmlns="http://www.w3.org/2000/svg" viewBox="0 0 13 14">
  <defs>
    <style>
      .cls-1 {
        fill: #000;
        stroke-width: 0px;
      }
    </style>
  </defs>
  <path class="cls-1" d="M9.5,2.79l3.16,3.16c.21.21.34.51.34.81v6.09c0,.63-.51,1.14-1.14,1.14h-2.71c-.63,0-1.14-.51-1.14-1.14v-2.21c0-.63-.51-1.14-1.14-1.14h-.71c-.63,0-1.14.51-1.14,1.14v2.21c0,.63-.51,1.14-1.14,1.14H1.14c-.63,0-1.14-.51-1.14-1.14v-6.09c0-.3.12-.6.34-.81L6.15.15s0,0,0,0c.2-.2.51-.19.71,0l2.65,2.65Z"/>
</svg>